<?xml version="1.0" encoding="iso-8859-1"?>
<!-- Uploaded to: SVG Repo, www.svgrepo.com, Generator: SVG Repo Mixer Tools -->
<svg height="800px" width="800px" version="1.1" id="Layer_1" xmlns="http://www.w3.org/2000/svg" xmlns:xlink="http://www.w3.org/1999/xlink" 
	 viewBox="0 0 503.467 503.467" xml:space="preserve">
<g transform="translate(1 1)">
	<path style="fill:#FFDD09;" d="M408.6,272.084c0-84.48-69.12-153.6-153.6-153.6s-153.6,69.12-153.6,153.6s69.12,153.6,153.6,153.6
		S408.6,356.564,408.6,272.084"/>
	<path style="fill:#54C9FD;" d="M459.8,246.484l-5.12-9.387c-7.68-16.213-11.947-34.133-11.947-52.053v-32.427v-19.627
		c0-30.72,11.947-60.587,34.133-82.773v196.267H459.8z"/>
	<path style="fill:#FFDD09;" d="M41.667,451.284L41.667,451.284c-14.507,0-25.6-11.947-25.6-25.6v-153.6
		c0-13.653,11.093-25.6,25.6-25.6s25.6,11.947,25.6,25.6v153.6C67.267,440.191,56.173,451.284,41.667,451.284"/>
	<path style="fill:#54C9FD;" d="M348.867,272.084c0,51.2-42.667,93.867-93.867,93.867s-93.867-42.667-93.867-93.867
		S203.8,178.217,255,178.217S348.867,220.884,348.867,272.084"/>
	<path style="fill:#FFDD09;" d="M468.333,451.284L468.333,451.284c-14.507,0-25.6-11.947-25.6-25.6v-153.6
		c0-13.653,11.093-25.6,25.6-25.6c14.507,0,25.6,11.947,25.6,25.6v153.6C493.933,440.191,482.84,451.284,468.333,451.284"/>
	<path d="M255,374.484c-55.467,0-102.4-46.933-102.4-102.4s46.933-102.4,102.4-102.4s102.4,46.933,102.4,102.4
		S310.467,374.484,255,374.484z M255,186.751c-46.08,0-85.333,39.253-85.333,85.333S208.92,357.417,255,357.417
		s85.333-39.253,85.333-85.333S301.08,186.751,255,186.751z"/>
	<path d="M41.667,459.817c-18.773,0-34.133-15.36-34.133-34.133v-153.6c0-18.773,15.36-34.133,34.133-34.133
		S75.8,253.311,75.8,272.084v153.6C75.8,444.457,60.44,459.817,41.667,459.817z M41.667,255.017c-9.387,0-17.067,7.68-17.067,17.067
		v153.6c0,9.387,7.68,17.067,17.067,17.067s17.067-7.68,17.067-17.067v-153.6C58.733,262.697,51.053,255.017,41.667,255.017z"/>
	<path d="M468.333,459.817c-18.773,0-34.133-15.36-34.133-34.133v-153.6c0-18.773,15.36-34.133,34.133-34.133
		c18.773,0,34.133,15.36,34.133,34.133v153.6C502.467,444.457,487.107,459.817,468.333,459.817z M468.333,255.017
		c-9.387,0-17.067,7.68-17.067,17.067v153.6c0,9.387,7.68,17.067,17.067,17.067c9.387,0,17.067-7.68,17.067-17.067v-153.6
		C485.4,262.697,477.72,255.017,468.333,255.017z"/>
	<path d="M41.667,195.284C17.773,195.284-1,176.511-1,152.617V58.751c0-5.12,3.413-8.533,8.533-8.533s8.533,3.413,8.533,8.533
		v93.867c0,14.507,11.093,25.6,25.6,25.6s25.6-11.093,25.6-25.6V58.751c0-5.12,3.413-8.533,8.533-8.533
		c5.12,0,8.533,3.413,8.533,8.533v93.867C84.333,176.511,65.56,195.284,41.667,195.284z"/>
	<path d="M41.667,255.017c-5.12,0-8.533-3.413-8.533-8.533v-59.733c0-5.12,3.413-8.533,8.533-8.533s8.533,3.413,8.533,8.533v59.733
		C50.2,251.604,46.787,255.017,41.667,255.017z"/>
	<path d="M41.667,195.284c-5.12,0-8.533-3.413-8.533-8.533v-128c0-5.12,3.413-8.533,8.533-8.533s8.533,3.413,8.533,8.533v128
		C50.2,191.871,46.787,195.284,41.667,195.284z"/>
	<path d="M476.867,255.017H459.8c-3.413,0-5.973-1.707-7.68-5.12l-5.12-9.387c-8.533-17.067-12.8-36.693-12.8-56.32v-51.2
		c0-33.28,12.8-64.853,36.693-88.747c2.56-2.56,5.973-3.413,9.387-1.707c3.413,1.707,5.12,4.267,5.12,7.68v196.267
		C485.4,251.604,481.987,255.017,476.867,255.017z M464.92,237.951h3.413V74.111c-11.093,17.067-17.067,37.547-17.067,58.027v52.053
		c0,17.067,4.267,33.28,11.093,48.64L464.92,237.951z"/>
	<path d="M50.2,306.217c0-5.12-3.413-8.533-8.533-8.533s-8.533,3.413-8.533,8.533c0,5.12,3.413,8.533,8.533,8.533
		S50.2,311.337,50.2,306.217"/>
	<path d="M476.867,306.217c0-5.12-3.413-8.533-8.533-8.533c-5.12,0-8.533,3.413-8.533,8.533c0,5.12,3.413,8.533,8.533,8.533
		C473.453,314.751,476.867,311.337,476.867,306.217"/>
	<path d="M255,434.217c-89.6,0-162.133-72.533-162.133-162.133S165.4,109.951,255,109.951s162.133,72.533,162.133,162.133
		S344.6,434.217,255,434.217z M255,127.017c-80.213,0-145.067,64.853-145.067,145.067S174.787,417.151,255,417.151
		s145.067-64.853,145.067-145.067S335.213,127.017,255,127.017z"/>
</g>
</svg>